<svg xmlns="http://www.w3.org/2000/svg" xmlns:xlink="http://www.w3.org/1999/xlink" version="1.0" x="0" y="0" width="2400" height="437.2444616000467" viewBox="62.46140747070312 105.40806274414062 215.07718505859376 39.183878326416014" preserveAspectRatio="xMidYMid meet" color-interpolation-filters="sRGB"><g><defs><linearGradient id="92" x1="0%" y1="0%" x2="100%" y2="0%"><stop offset="0%" stop-color="#fa71cd"></stop> <stop offset="100%" stop-color="#9b59b6"></stop></linearGradient><linearGradient id="93" x1="0%" y1="0%" x2="100%" y2="0%"><stop offset="0%" stop-color="#f9d423"></stop> <stop offset="100%" stop-color="#f83600"></stop></linearGradient><linearGradient id="94" x1="0%" y1="0%" x2="100%" y2="0%"><stop offset="0%" stop-color="#0064d2"></stop> <stop offset="100%" stop-color="#1cb0f6"></stop></linearGradient><linearGradient id="95" x1="0%" y1="0%" x2="100%" y2="0%"><stop offset="0%" stop-color="#f00978"></stop> <stop offset="100%" stop-color="#3f51b1"></stop></linearGradient><linearGradient id="96" x1="0%" y1="0%" x2="100%" y2="0%"><stop offset="0%" stop-color="#7873f5"></stop> <stop offset="100%" stop-color="#ec77ab"></stop></linearGradient><linearGradient id="97" x1="0%" y1="0%" x2="100%" y2="0%"><stop offset="0%" stop-color="#f9d423"></stop> <stop offset="100%" stop-color="#e14fad"></stop></linearGradient><linearGradient id="98" x1="0%" y1="0%" x2="100%" y2="0%"><stop offset="0%" stop-color="#009efd"></stop> <stop offset="100%" stop-color="#2af598"></stop></linearGradient><linearGradient id="99" x1="0%" y1="0%" x2="100%" y2="0%"><stop offset="0%" stop-color="#ffcc00"></stop> <stop offset="100%" stop-color="#00b140"></stop></linearGradient><linearGradient id="100" x1="0%" y1="0%" x2="100%" y2="0%"><stop offset="0%" stop-color="#d51007"></stop> <stop offset="100%" stop-color="#ff8177"></stop></linearGradient><linearGradient id="102" x1="0%" y1="0%" x2="100%" y2="0%"><stop offset="0%" stop-color="#a2b6df"></stop> <stop offset="100%" stop-color="#0c3483"></stop></linearGradient><linearGradient id="103" x1="0%" y1="0%" x2="100%" y2="0%"><stop offset="0%" stop-color="#7ac5d8"></stop> <stop offset="100%" stop-color="#eea2a2"></stop></linearGradient><linearGradient id="104" x1="0%" y1="0%" x2="100%" y2="0%"><stop offset="0%" stop-color="#00ecbc"></stop> <stop offset="100%" stop-color="#007adf"></stop></linearGradient><linearGradient id="105" x1="0%" y1="0%" x2="100%" y2="0%"><stop offset="0%" stop-color="#b88746"></stop> <stop offset="100%" stop-color="#fdf5a6"></stop></linearGradient></defs><g fill="#8F34E8" class="icon-text-wrapper icon-svg-group iconsvg" transform="translate(64.57000732421875,107.51666069030762)"><g class="iconsvg-imagesvg" transform="translate(0,0)"><g><rect fill="#8F34E8" fill-opacity="0" stroke-width="2" x="0" y="0" width="37.19999999999998" height="34.96667825956177" class="image-rect"></rect> <svg x="0" y="0" width="37.19999999999998" height="34.96667825956177" filtersec="colorsb4634853687" class="image-svg-svg primary" style="overflow: visible;"><svg xmlns="http://www.w3.org/2000/svg" viewBox="8.956130981445312 9.509570121765137 1876.857666015625 1764.180419921875" display="block"><defs><linearGradient id="a" gradientUnits="userSpaceOnUse" x1="678.63" y1="1179.73" x2="2035.47" y2="568.113"><stop class="stop0" offset="0" stop-opacity="1" stop-color="rgb(185,103,254)"></stop><stop class="stop1" offset="1" stop-opacity="1" stop-color="rgb(234,163,255)"></stop></linearGradient></defs><path fill="url(#a)" d="M 948.422 794.174 L 948.668 793.413 C 954.984 773.434 959.176 752.405 964.996 732.203 C 973.054 704.23 983.398 676.774 994.29 649.796 C 1087.31 417.792 1260.69 226.987 1482.74 112.225 C 1559.99 71.65 1634.84 43.5252 1718.95 20.4784 C 1734.09 16.3283 1766.57 5.85639 1781.24 10.815 C 1787.53 12.9432 1791.77 22.2826 1794.26 28.0468 C 1799.88 41.0855 1804.4 54.7434 1809.26 68.0908 C 1818.53 93.5075 1827.5 118.806 1835.39 144.689 C 1872.39 265.983 1892.17 394.74 1883.98 521.651 C 1882.56 543.557 1879.4 565.18 1876.67 586.941 C 1874.67 602.81 1873.35 618.678 1870.69 634.469 C 1859.71 699.705 1840.32 765.302 1815.56 826.57 C 1787.88 895.042 1752.25 958.532 1710.52 1019.38 C 1698.6 1036.77 1683.78 1052.51 1672.33 1070.05 C 1631.17 1118.46 1588.59 1165.12 1541.14 1207.52 C 1487.35 1255.58 1429.27 1297.1 1372.1 1340.92 C 1295.01 1400 1219.75 1460.63 1148.59 1526.84 C 1095.4 1576.33 1043.86 1631.79 1000.4 1690.05 C 989.548 1704.6 978.691 1719.34 968.763 1734.53 C 960.714 1746.86 953.282 1760.71 943.895 1772.05 L 942.041 1773.69 C 941.269 1773.45 940.99 1773.42 940.263 1772.87 C 932.171 1766.65 915.348 1737.05 908.585 1727.45 C 894.964 1708.2 880.876 1689.29 866.333 1670.73 C 827.847 1623.06 786.729 1577.57 743.171 1534.48 C 679.539 1472.7 612.788 1414.21 543.177 1359.25 C 499.159 1324.29 453.648 1290.97 410.471 1255 C 235.09 1108.9 100.12 937.868 40.9651 713.379 C -11.0282 516.068 2.63985 316.629 65.1664 123.647 C 73.3184 98.4872 82.5851 73.8201 92.0675 49.139 C 95.9584 39.0119 99.4058 27.0052 105.013 17.7732 C 107.014 14.4791 108.845 12.268 112.689 11.4054 C 130.99 7.29899 160.208 18.1645 178.243 23.1626 C 205.686 30.7684 233.123 38.0147 260.064 47.3435 C 329.105 71.2509 396.819 104.078 459.469 141.481 C 599.119 224.489 717.313 339.146 804.525 476.21 C 835.146 523.457 861.475 573.353 883.194 625.298 C 900.71 668.085 915.321 712.005 926.927 756.758 C 931.899 775.719 935.788 795.066 940.594 814.103 C 941.729 813.862 942.664 813.372 943.715 812.892 C 947.23 807.335 947.644 800.558 948.422 794.174 z M 934.676 1735.25 L 936.596 1735.83 C 940.488 1733.11 939.834 1725.88 940.118 1721.48 C 947.09 1606.81 966.041 1493.19 996.661 1382.47 C 1056.8 1162.37 1150.33 952.794 1274.01 761.052 C 1300.19 720.121 1328.13 680.59 1356.33 641.056 C 1423.92 545.578 1497.02 454.12 1575.26 367.147 C 1566.71 370.894 1558.67 376.302 1550.71 381.15 C 1510.05 405.912 1472.07 436.193 1435.87 467.02 C 1414.84 484.936 1394.96 503.875 1374.59 522.507 C 1341.11 553.122 1308.03 583.744 1276.6 616.494 C 1189.05 707.683 1114.45 810.477 1054.89 921.986 C 1039.88 949.856 1023.97 977.931 1011.42 1007.03 C 1001.99 1025.11 994.092 1044.06 986.04 1062.8 C 969.281 1102.43 953.097 1142.3 937.495 1182.4 C 933.697 1191.91 922.621 1228.72 916.432 1233.87 C 914.62 1233.59 914.833 1233.98 913.621 1232.26 C 907.794 1223.96 896.51 1173.96 894.899 1162.43 C 892.833 1146.35 887.847 1131.41 883.431 1115.88 C 874.776 1085.46 865.5 1055.47 855.033 1025.61 C 797.671 861.985 723.057 722.652 611.766 588.987 C 592.872 566.295 572.661 545.004 552.78 523.197 C 510.15 476.435 465.959 429.583 415.721 390.831 C 405.369 382.846 394.554 375.476 384.193 367.506 C 375.921 361.144 368.003 354 359.4 348.132 L 360.23 349.528 C 368.389 363.051 381.248 375.005 391.883 386.699 C 408.41 404.87 425.15 423.247 440.686 442.274 C 501.816 515.942 555.489 595.491 600.916 679.753 C 695.958 855.605 760.376 1044.63 811.362 1237.38 C 815.134 1251.64 817.901 1266.18 821.515 1280.49 C 827.828 1305.49 834.938 1330.39 840.825 1355.48 C 852.815 1406.59 863.045 1458.13 875.086 1509.19 C 882.806 1541.93 891.437 1574.56 900.094 1607.07 C 908.204 1637.53 915.524 1669.49 926.447 1699.05 C 928.085 1711.09 931.562 1723.49 934.676 1735.25 z"></path><path fill="#8f34e8" d="M 943.895 1772.05 L 942.041 1773.69 C 941.269 1773.45 940.99 1773.42 940.263 1772.87 C 932.171 1766.65 915.348 1737.05 908.585 1727.45 C 894.964 1708.2 880.876 1689.29 866.333 1670.73 C 827.847 1623.06 786.729 1577.57 743.171 1534.48 C 679.539 1472.7 612.788 1414.21 543.177 1359.25 C 499.159 1324.29 453.648 1290.97 410.471 1255 C 235.09 1108.9 100.12 937.868 40.9651 713.379 C -11.0282 516.068 2.63985 316.629 65.1664 123.647 C 73.3184 98.4872 82.5851 73.8201 92.0675 49.139 C 95.9584 39.0119 99.4058 27.0052 105.013 17.7732 C 107.014 14.4791 108.845 12.268 112.689 11.4054 C 130.99 7.29899 160.208 18.1645 178.243 23.1626 C 205.686 30.7684 233.123 38.0147 260.064 47.3435 C 329.105 71.2509 396.819 104.078 459.469 141.481 C 599.119 224.489 717.313 339.146 804.525 476.21 C 835.146 523.457 861.475 573.353 883.194 625.298 C 900.71 668.085 915.321 712.005 926.927 756.758 C 931.899 775.719 935.788 795.066 940.594 814.103 C 938.077 818.235 939.262 836.008 938.372 842.136 C 936.21 857.008 932.717 871.749 930.113 886.555 C 924.746 917.082 920.03 948.294 915.858 979.018 C 912.795 1001.58 911.084 1024.3 908.201 1046.88 C 905.342 1069.27 901.199 1091.54 898.74 1113.97 C 896.975 1130.07 897.048 1146.38 894.899 1162.43 C 892.833 1146.35 887.847 1131.41 883.431 1115.88 C 874.776 1085.46 865.5 1055.47 855.033 1025.61 C 797.671 861.985 723.057 722.652 611.766 588.987 C 592.872 566.295 572.661 545.004 552.78 523.197 C 510.15 476.435 465.959 429.583 415.721 390.831 C 405.369 382.846 394.554 375.476 384.193 367.506 C 375.921 361.144 368.003 354 359.4 348.132 L 360.23 349.528 C 368.389 363.051 381.248 375.005 391.883 386.699 C 408.41 404.87 425.15 423.247 440.686 442.274 C 501.816 515.942 555.489 595.491 600.916 679.753 C 695.958 855.605 760.376 1044.63 811.362 1237.38 C 815.134 1251.64 817.901 1266.18 821.515 1280.49 C 827.828 1305.49 834.938 1330.39 840.825 1355.48 C 852.815 1406.59 863.045 1458.13 875.086 1509.19 C 882.806 1541.93 891.437 1574.56 900.094 1607.07 C 908.204 1637.53 915.524 1669.49 926.447 1699.05 C 928.085 1711.09 931.562 1723.49 934.676 1735.25 C 932.866 1739.53 939.978 1763.28 942.2 1768.47 C 942.713 1769.68 943.278 1770.88 943.895 1772.05 z"></path></svg></svg> </g></g> <g transform="translate(44.20000076293945,3.043339729309082)"><g fill-rule="" class="tp-name iconsvg-namesvg"><g transform="scale(1)"><g><path d="M3.72-20.37L16.87-20.37 16.87-22.07 2.02-22.07 2.02 0.03 3.72 0.03 3.72-9.96 16.43-9.96 16.43-11.57 3.72-11.57ZM21.88-15.64L21.88 0 20.34 0 20.34-15.64ZM19.89-20.65C19.89-19.01 22.39-19.01 22.39-20.65 22.39-22.29 19.89-22.29 19.89-20.65ZM33.33 0.22C35.82 0.22 38.53-0.79 40.04-2.77L38.94-3.66C37.77-2.11 35.37-1.29 33.33-1.29 30.11-1.29 27.3-3.41 26.99-7.06L41.02-7.06C41.62-13.15 37.71-15.83 33.33-15.83 28.94-15.83 25.41-12.45 25.41-7.79 25.41-2.84 28.94 0.22 33.33 0.22ZM26.99-8.42C27.33-12.23 30.11-14.41 33.33-14.41 37.08-14.41 39.6-12.26 39.63-8.42ZM45.02-22.07L45.02 0 46.57 0 46.57-22.07ZM57.92-14.35C61.51-14.35 64.29-11.7 64.29-7.82 64.29-3.94 61.57-1.26 57.92-1.26 54.42-1.26 51.55-3.47 51.55-7.79 51.55-12.17 54.42-14.35 57.92-14.35ZM64.32-22.07L64.32-12.17C63.06-14.69 60.53-15.83 57.85-15.83 53.5-15.83 50.04-12.93 50.04-7.79 50.04-2.62 53.47 0.25 57.82 0.25 60.47 0.25 63.02-1.07 64.32-3.44L64.32 0 65.83 0 65.83-22.07ZM86.26-18.63C84.09-21.88 81.34-22.39 78.19-22.39 74.56-22.39 69.71-20.93 69.8-16.27 69.8-12.2 73.93-11.38 77.97-10.59 81.59-9.9 85.25-9.17 85.22-5.86 85.22-1.95 80.9-1.2 78.19-1.2 75.48-1.2 72.01-2.52 70.65-5.2L69.14-4.45C70.84-1.07 74.75 0.35 78.19 0.35 81.88 0.35 86.89-0.85 86.92-5.83 86.92-10.59 82.51-11.35 78.25-12.17 74.53-12.86 71.51-13.53 71.51-16.33 71.51-19.86 75.6-20.81 78.19-20.81 80.68-20.78 83.27-20.4 84.87-17.81ZM98.46-1.2C94.9-1.2 92.16-3.94 92.16-7.76 92.16-11.57 94.84-14.31 98.46-14.31 101.99-14.31 104.83-12.17 104.83-7.79 104.83-3.41 101.99-1.2 98.46-1.2ZM92.03 6.49L92.03-3.59C93.35-1.01 95.81 0.28 98.46 0.28 102.84 0.28 106.38-2.55 106.38-7.79 106.38-12.8 103.03-15.64 98.81-15.8 95.78-15.8 93.29-14.25 92.06-11.89L92.06-15.57 90.55-15.57 90.55 6.49ZM110.16-15.57L110.16 0 111.7 0 111.7-9.08C111.7-11.92 113.94-14.25 116.84-14.28 117.76-14.28 118.67-14.06 119.49-13.56L120.19-14.82C119.15-15.45 118.01-15.76 116.84-15.73 114.86-15.73 112.65-14.91 111.67-12.8L111.61-15.57ZM129.71 0.22C134.09 0.22 137.62-2.81 137.62-7.76 137.62-12.71 134.09-15.86 129.71-15.86 125.32-15.86 121.79-12.71 121.79-7.76 121.79-2.81 125.32 0.22 129.71 0.22ZM129.71-1.29C126.18-1.29 123.31-3.72 123.31-7.76 123.31-11.79 126.18-14.41 129.71-14.41 133.24-14.41 136.11-11.79 136.11-7.76 136.11-3.72 133.24-1.29 129.71-1.29ZM155.24 0L155.24-15.61 153.7-15.61 153.7-6.94C153.7-3.72 151.46-1.29 148.25-1.26 144.87-1.23 142.7-3.12 142.7-6.65L142.7-15.61 141.15-15.61 141.15-6.62C141.15-2.3 144.02 0.25 148.18 0.25 150.36 0.22 152.53-0.66 153.73-2.81L153.73 0ZM161.36-20.11L161.36-15.57 158.05-15.57 158.05-14.28 161.36-14.28 161.36-4.79C161.36-1.73 162.43 0.22 165.74 0.22 166.72 0.22 167.7-0.09 168.68-0.57L168.14-1.83C167.35-1.45 166.5-1.2 165.74-1.2 163.32-1.2 162.87-2.68 162.87-4.79L162.87-14.28 168.17-14.28 168.17-15.57 162.87-15.57 162.87-20.27Z" transform="translate(-2.0199999809265137, 22.389999389648438)"></path></g> </g></g> </g></g><defs v-gra="od"></defs></g></svg>